<svg xmlns="http://www.w3.org/2000/svg" width="44" height="33" viewBox="0 0 44 33" fill="none">
    <path
        d="M42 7.49994H8.73L7.5 1.19994C7.42987 0.856025 7.24136 0.547593 6.96729 0.328331C6.69321 0.109069 6.35092 -0.00713795 6 -6.10524e-05H0V2.99994H4.77L10.5 31.7999C10.5701 32.1439 10.7586 32.4523 11.0327 32.6715C11.3068 32.8908 11.6491 33.007 12 32.9999H39V29.9999H13.23L12 23.9999H39C39.3467 24.0084 39.6857 23.8965 39.9592 23.6831C40.2327 23.4698 40.4238 23.1683 40.5 22.8299L43.5 9.32994C43.5503 9.10738 43.5491 8.87628 43.4966 8.65424C43.4441 8.43219 43.3416 8.22506 43.1969 8.04859C43.0523 7.87213 42.8693 7.73099 42.6619 7.63591C42.4545 7.54084 42.2281 7.49433 42 7.49994ZM37.8 20.9999H11.43L9.33 10.4999H40.125L37.8 20.9999Z"
        fill="#232323" />
</svg>